<svg width="21" height="18" viewBox="0 0 21 18" fill="none" xmlns="http://www.w3.org/2000/svg">
<path d="M19 9H2H19Z" fill="#4A4A4A"/>
<path d="M19 10.125C19.6213 10.125 20.125 9.62132 20.125 9C20.125 8.37868 19.6213 7.875 19 7.875V10.125ZM1.2045 8.2045C0.765165 8.64384 0.765165 9.35616 1.2045 9.7955L8.36396 16.955C8.8033 17.3943 9.51561 17.3943 9.95495 16.955C10.3943 16.5156 10.3943 15.8033 9.95495 15.364L3.59099 9L9.95495 2.63604C10.3943 2.1967 10.3943 1.48439 9.95495 1.04505C9.51561 0.605709 8.8033 0.605709 8.36396 1.04505L1.2045 8.2045ZM19 7.875H2V10.125H19V7.875Z" fill="white"/>
</svg>
