<svg width="14" height="14" viewBox="0 0 14 14" fill="none" xmlns="http://www.w3.org/2000/svg">
<path d="M7.34329 0.0697334L13.4676 2.69499C13.8503 2.85907 14.0636 3.26926 13.9788 3.67399C13.8941 4.07872 13.5387 4.37406 13.1231 4.37406V4.59283C13.1231 4.95654 12.8305 5.24915 12.4669 5.24915H1.53069C1.16706 5.24915 0.874516 4.95654 0.874516 4.59283V4.37406C0.45894 4.37406 0.100779 4.08145 0.0187569 3.67399C-0.0632648 3.26653 0.149991 2.85633 0.530025 2.69499L6.65431 0.0697334C6.87303 -0.0232445 7.12456 -0.0232445 7.34329 0.0697334ZM10.4984 6.12423H12.2482V11.4923C12.2646 11.5005 12.281 11.5115 12.2974 11.5224L13.6097 12.3975C13.9296 12.6108 14.0745 13.0101 13.9624 13.3792C13.8503 13.7484 13.5086 14 13.1231 14H0.874516C0.489014 14 0.149991 13.7484 0.0378952 13.3792C-0.0742016 13.0101 0.0679693 12.6108 0.390588 12.3975L1.70293 11.5224C1.71934 11.5115 1.73574 11.5033 1.75215 11.4923V6.12423H3.49921V11.3747H4.59283V6.12423H6.34262V11.3747H7.65497V6.12423H9.40476V11.3747H10.4984V6.12423ZM6.9988 1.7488C6.76676 1.7488 6.54423 1.841 6.38015 2.00511C6.21608 2.16922 6.1239 2.3918 6.1239 2.62389C6.1239 2.85598 6.21608 3.07856 6.38015 3.24267C6.54423 3.40678 6.76676 3.49897 6.9988 3.49897C7.23083 3.49897 7.45337 3.40678 7.61744 3.24267C7.78152 3.07856 7.87369 2.85598 7.87369 2.62389C7.87369 2.3918 7.78152 2.16922 7.61744 2.00511C7.45337 1.841 7.23083 1.7488 6.9988 1.7488Z" fill="#5261EF"/>
</svg>
