<svg width="41" height="42" viewBox="0 0 41 42" fill="none" xmlns="http://www.w3.org/2000/svg">
<path d="M20.5 0C9.19585 0 0 9.42014 0 21C0 32.5799 9.19585 42 20.5 42C31.8042 42 41 32.5799 41 21C41 9.42014 31.8042 0 20.5 0Z" fill="#2ECC77"/>
<path d="M30.476 16.2136L18.8593 28.4482C18.5108 28.8153 18.0534 29 17.5959 29C17.1384 29 16.6809 28.8153 16.3324 28.4482L10.5242 22.3309C9.82525 21.595 9.82525 20.4053 10.5242 19.6695C11.2229 18.9333 12.3522 18.9333 13.0512 19.6695L17.5959 24.456L27.9491 13.5521C28.6477 12.816 29.777 12.816 30.476 13.5521C31.1747 14.288 31.1747 15.4774 30.476 16.2136Z" fill="#FAFAFA"/>
</svg>

