<svg width="17" height="18" viewBox="0 0 17 18" fill="none" xmlns="http://www.w3.org/2000/svg">
<path d="M13.3571 7.5C15.3683 7.5 17 5.82031 17 3.75C17 1.67969 15.3683 0 13.3571 0C11.346 0 9.71429 1.67969 9.71429 3.75C9.71429 3.90625 9.72188 4.0625 9.74085 4.21484L6.17009 6.05078C5.51741 5.39844 4.62567 5 3.64286 5C1.6317 5 0 6.67969 0 8.75C0 10.8203 1.6317 12.5 3.64286 12.5C4.62567 12.5 5.51741 12.1016 6.17009 11.4492L9.74085 13.2852C9.72188 13.4375 9.71429 13.5898 9.71429 13.75C9.71429 15.8203 11.346 17.5 13.3571 17.5C15.3683 17.5 17 15.8203 17 13.75C17 11.6797 15.3683 10 13.3571 10C12.3743 10 11.4826 10.3984 10.8299 11.0508L7.25915 9.21484C7.27813 9.0625 7.28571 8.91016 7.28571 8.75C7.28571 8.58984 7.27813 8.4375 7.25915 8.28516L10.8299 6.44922C11.4826 7.10156 12.3743 7.5 13.3571 7.5Z" fill="white"/>
</svg>
